<?xml version="1.0" standalone="no"?>
<!DOCTYPE svg PUBLIC "-//W3C//DTD SVG 20010904//EN"
 "http://www.w3.org/TR/2001/REC-SVG-20010904/DTD/svg10.dtd">
<svg version="1.0" xmlns="http://www.w3.org/2000/svg"
 width="824.000000pt" height="824.000000pt" viewBox="0 0 824.000000 824.000000"
 preserveAspectRatio="xMidYMid meet">
<metadata>
Created by potrace 1.14, written by Peter Selinger 2001-2017
</metadata>
<g transform="translate(0.000000,824.000000) scale(0.100000,-0.100000)"
fill="#000000" stroke="none">
<path d="M2017 8056 c-56 -21 -94 -55 -125 -111 -14 -25 -18 -70 -20 -277 l-3
-248 -818 -2 -817 -3 -59 -30 c-71 -37 -129 -102 -155 -178 -19 -55 -20 -84
-20 -867 0 -733 2 -810 16 -810 13 0 15 -7 9 -42 -4 -24 -10 -52 -13 -63 -4
-11 -7 -945 -8 -2075 -2 -2266 -5 -2145 62 -2348 91 -270 287 -511 544 -664
67 -40 206 -103 249 -114 9 -2 36 -8 61 -15 25 -6 54 -13 65 -15 11 -2 31 -7
45 -11 14 -4 1391 -9 3060 -9 3311 -2 3114 -6 3300 56 450 149 771 532 839
1000 11 76 9 4171 -2 4210 -19 66 -20 90 -3 90 15 0 16 70 15 818 0 787 -1
819 -20 868 -27 71 -88 137 -157 171 l-57 28 -817 3 -817 3 -3 247 c-3 265 -4
270 -60 333 -76 86 -223 90 -307 7 -65 -63 -66 -68 -69 -340 l-3 -248 -1810 0
-1809 0 0 228 c0 240 -4 274 -45 332 -50 72 -164 107 -248 76z"/>
</g>
</svg>
